<svg xmlns="http://www.w3.org/2000/svg" xmlns:xlink="http://www.w3.org/1999/xlink" width="500" zoomAndPan="magnify" viewBox="0 0 375 374.999991" height="500" preserveAspectRatio="xMidYMid meet" version="1.0"><defs><clipPath id="fc25e325ff"><path d="M 187.5 0 C 83.945312 0 0 83.945312 0 187.5 C 0 291.054688 83.945312 375 187.5 375 C 291.054688 375 375 291.054688 375 187.5 C 375 83.945312 291.054688 0 187.5 0 Z M 187.5 0 " clip-rule="nonzero"/></clipPath><clipPath id="97227eb206"><path d="M 0 0 L 375 0 L 375 375 L 0 375 Z M 0 0 " clip-rule="nonzero"/></clipPath><clipPath id="311ceb3ec8"><path d="M 187.5 0 C 83.945312 0 0 83.945312 0 187.5 C 0 291.054688 83.945312 375 187.5 375 C 291.054688 375 375 291.054688 375 187.5 C 375 83.945312 291.054688 0 187.5 0 Z M 187.5 0 " clip-rule="nonzero"/></clipPath><clipPath id="4b62bbc8de"><rect x="0" width="375" y="0" height="375"/></clipPath><clipPath id="93e656e271"><path d="M 130 46 L 317 46 L 317 351.464844 L 130 351.464844 Z M 130 46 " clip-rule="nonzero"/></clipPath><clipPath id="9833cfca43"><path d="M 186.8125 91.953125 L 195.6875 91.953125 L 195.6875 100.824219 L 186.8125 100.824219 Z M 186.8125 91.953125 " clip-rule="nonzero"/></clipPath><clipPath id="ce572d3607"><path d="M 191.25 91.953125 C 188.800781 91.953125 186.8125 93.9375 186.8125 96.386719 C 186.8125 98.839844 188.800781 100.824219 191.25 100.824219 C 193.699219 100.824219 195.6875 98.839844 195.6875 96.386719 C 195.6875 93.9375 193.699219 91.953125 191.25 91.953125 Z M 191.25 91.953125 " clip-rule="nonzero"/></clipPath><clipPath id="c0b0581d4a"><path d="M 0.8125 0.953125 L 9.6875 0.953125 L 9.6875 9.824219 L 0.8125 9.824219 Z M 0.8125 0.953125 " clip-rule="nonzero"/></clipPath><clipPath id="a5c35eeb3d"><path d="M 5.25 0.953125 C 2.800781 0.953125 0.8125 2.9375 0.8125 5.386719 C 0.8125 7.839844 2.800781 9.824219 5.25 9.824219 C 7.699219 9.824219 9.6875 7.839844 9.6875 5.386719 C 9.6875 2.9375 7.699219 0.953125 5.25 0.953125 Z M 5.25 0.953125 " clip-rule="nonzero"/></clipPath><clipPath id="44d3da2bf2"><rect x="0" width="10" y="0" height="10"/></clipPath></defs><g clip-path="url(#fc25e325ff)"><g transform="matrix(1, 0, 0, 1, 0, 0)"><g clip-path="url(#4b62bbc8de)"><g clip-path="url(#97227eb206)"><g clip-path="url(#311ceb3ec8)"><rect x="-82.5" width="540" fill="#ffffff" height="539.999987" y="-82.499998" fill-opacity="1"/></g></g></g></g></g><g clip-path="url(#93e656e271)"><path fill="#9d1200" d="M 282.457031 46.140625 C 282.457031 46.140625 315.574219 126.546875 195.132812 186.292969 C 74.691406 246.039062 160.082031 351.28125 160.082031 351.28125 C 160.082031 351.28125 151.878906 282.992188 180.984375 262.804688 C 210.089844 242.613281 227.507812 244.847656 255.140625 250.996094 C 282.773438 257.148438 293.078125 244.574219 289.625 230.640625 C 286.175781 216.710938 300.707031 218.257812 296.589844 211.445312 C 292.476562 204.636719 304.488281 205.089844 304.453125 201.199219 C 304.414062 197.308594 291.679688 193.769531 306.101562 182.1875 C 320.527344 170.605469 318.820312 171.652344 309.53125 157.773438 C 300.246094 143.898438 293.988281 136.09375 296.996094 127.101562 C 298.996094 121.109375 302.714844 124.15625 305.464844 119.425781 C 304.96875 120.179688 304.335938 120.792969 303.574219 121.273438 C 302.808594 121.753906 301.980469 122.054688 301.085938 122.175781 C 299.675781 122.371094 298.785156 122.308594 298.234375 122.191406 C 298.007812 122.144531 297.828125 122.023438 297.699219 121.832031 C 297.566406 121.640625 297.519531 121.429688 297.558594 121.203125 C 298.457031 115.839844 303.582031 79.023438 282.457031 46.140625 Z M 282.457031 46.140625 " fill-opacity="1" fill-rule="nonzero"/></g><path fill="#9d1200" d="M 276.25 65.398438 C 276.515625 117.832031 228.890625 149.917969 185.394531 167.703125 C 157.824219 178.976562 127.082031 190.132812 112.027344 217.925781 C 97.355469 245.011719 99.894531 282.140625 124.273438 303.273438 C 100.699219 282.835938 88.496094 250.714844 93.558594 219.804688 C 97.664062 194.714844 113.59375 174.210938 135.019531 161.144531 C 156.9375 147.773438 182.972656 141.949219 206.84375 132.265625 C 222.496094 125.917969 240.199219 116.121094 250.019531 101.96875 C 253.554688 96.890625 255.84375 90.726562 254.214844 84.53125 C 251.632812 74.734375 243.023438 68.921875 233.644531 66.476562 C 225.039062 64.230469 211.160156 62.730469 203.695312 68.660156 C 196.992188 73.980469 199.554688 85.34375 208.109375 86.875 C 204.351562 86.203125 201.765625 86.265625 198.558594 83.613281 C 195.480469 81.070312 193.113281 77.476562 192.132812 73.59375 C 188.726562 60.105469 201.957031 49.367188 213.832031 46.773438 C 229.234375 43.402344 246.15625 46.023438 258.941406 55.5625 C 259.902344 56.285156 263.359375 59.898438 263.660156 61.222656 C 258.546875 38.765625 223.261719 35.640625 210.074219 40.003906 C 189.476562 46.820312 185.296875 64.9375 185.296875 64.9375 C 185.296875 64.9375 180.960938 26.070312 223.726562 24.515625 C 245.976562 23.710938 276.109375 37.546875 276.25 65.398438 Z M 276.25 65.398438 " fill-opacity="1" fill-rule="nonzero"/><path fill="#9d1200" d="M 90.648438 179.28125 C 90.648438 179.28125 54.449219 159.234375 62.347656 119.445312 C 62.347656 119.445312 118.347656 113.261719 106.046875 174.253906 C 106.046875 174.253906 94.921875 146.6875 81.5 141.765625 C 81.5 141.765625 101.253906 164.5 90.648438 179.28125 Z M 90.648438 179.28125 " fill-opacity="1" fill-rule="nonzero"/><path fill="#9d1200" d="M 126.945312 139.75 C 126.945312 139.75 118.246094 110.347656 143.097656 93.449219 C 143.097656 93.449219 175.886719 119.285156 137.691406 145.105469 C 137.691406 145.105469 146.144531 124.765625 141.613281 115.191406 C 141.613281 115.183594 140.230469 137.453125 126.945312 139.75 Z M 126.945312 139.75 " fill-opacity="1" fill-rule="nonzero"/><path fill="#9d1200" d="M 181.890625 125.777344 C 181.890625 125.777344 177.210938 109.960938 190.578125 100.863281 C 190.578125 100.863281 208.21875 114.765625 187.671875 128.648438 C 187.671875 128.648438 192.21875 117.703125 189.78125 112.550781 C 189.777344 112.558594 189.035156 124.542969 181.890625 125.777344 Z M 181.890625 125.777344 " fill-opacity="1" fill-rule="nonzero"/><g clip-path="url(#9833cfca43)"><g clip-path="url(#ce572d3607)"><g transform="matrix(1, 0, 0, 1, 186, 91)"><g clip-path="url(#44d3da2bf2)"><g clip-path="url(#c0b0581d4a)"><g clip-path="url(#a5c35eeb3d)"><path fill="#9d1200" d="M 0.8125 0.953125 L 9.6875 0.953125 L 9.6875 9.824219 L 0.8125 9.824219 Z M 0.8125 0.953125 " fill-opacity="1" fill-rule="nonzero"/></g></g></g></g></g></g></svg>